{
  "accessors": [
    {
      "bufferView": 2,
      "componentType": 5126,
      "count": 1029,
      "max": [
        0.47000002861022949,
        0.070000007748603821,
        0.47000020742416382
      ],
      "min": [
        -0.47000041604042053,
        -0.070000030100345612,
        -0.47000053524971008
      ],
      "type": "VEC3"
    },
    {
      "bufferView": 2,
      "byteOffset": 12348,
      "componentType": 5126,
      "count": 1029,
      "max": [
        1,
        0.99994188547134399,
        1
      ],
      "min": [
        -1,
        -0.99994188547134399,
        -1
      ],
      "type": "VEC3"
    },
    {
      "bufferView": 1,
      "componentType": 5126,
      "count": 1029,
      "max": [
        0.28496944904327393,
        0.70041924715042114
      ],
      "min": [
        0.03871685266494751,
        0.45416650176048279
      ],
      "type": "VEC2"
    },
    {
      "bufferView": 0,
      "componentType": 5125,
      "count": 5760,
      "max": [
        1028
      ],
      "min": [
        0
      ],
      "type": "SCALAR"
    },
    {
      "bufferView": 2,
      "byteOffset": 24696,
      "componentType": 5126,
      "count": 4614,
      "max": [
        0.5218234658241272,
        0.73229539394378662,
        0.049909487366676331
      ],
      "min": [
        -0.5218234658241272,
        -0.73229539394378662,
        -0.049909487366676331
      ],
      "type": "VEC3"
    },
    {
      "bufferView": 2,
      "byteOffset": 80064,
      "componentType": 5126,
      "count": 4614,
      "max": [
        0.99996489286422729,
        1,
        1
      ],
      "min": [
        -0.99996489286422729,
        -1,
        -1
      ],
      "type": "VEC3"
    },
    {
      "bufferView": 1,
      "byteOffset": 8232,
      "componentType": 5126,
      "count": 4614,
      "max": [
        0.85680413246154785,
        0.64264410734176636
      ],
      "min": [
        0.041743017733097076,
        0.33788397908210754
      ],
      "type": "VEC2"
    },
    {
      "bufferView": 0,
      "byteOffset": 23040,
      "componentType": 5125,
      "count": 27660,
      "max": [
        4613
      ],
      "min": [
        0
      ],
      "type": "SCALAR"
    },
    {
      "bufferView": 3,
      "componentType": 5126,
      "count": 1798,
      "max": [
        37.5
      ],
      "min": [
        0.041666667908430099
      ],
      "type": "SCALAR"
    },
    {
      "bufferView": 4,
      "componentType": 5126,
      "count": 1798,
      "max": [
        0,
        1.4413785934448242,
        0
      ],
      "min": [
        0,
        1.0413786172866821,
        0
      ],
      "type": "VEC3"
    },
    {
      "bufferView": 3,
      "byteOffset": 7192,
      "componentType": 5126,
      "count": 1798,
      "max": [
        37.5
      ],
      "min": [
        0.041666667908430099
      ],
      "type": "SCALAR"
    },
    {
      "bufferView": 5,
      "componentType": 5126,
      "count": 1798,
      "max": [
        8.361878153303421e-17,
        0.99999994039535522,
        8.361878153303421e-17,
        1
      ],
      "min": [
        -8.6595572947041041e-17,
        -0.86555922031402588,
        -8.6595572947041041e-17,
        -0.49899131059646606
      ],
      "type": "VEC4"
    }
  ],
  "animations": [
    {
      "channels": [
        {
          "sampler": 0,
          "target": {
            "node": 8,
            "path": "translation"
          }
        },
        {
          "sampler": 1,
          "target": {
            "node": 8,
            "path": "rotation"
          }
        }
      ],
      "name": "Take 001",
      "samplers": [
        {
          "input": 8,
          "interpolation": "LINEAR",
          "output": 9
        },
        {
          "input": 10,
          "interpolation": "LINEAR",
          "output": 11
        }
      ]
    }
  ],
  "asset": {
    "extras": {
      "author": "John Doe (https://sketchfab.com/rishabhs)",
      "license": "CC-BY-4.0 (http://creativecommons.org/licenses/by/4.0/)",
      "source": "https://sketchfab.com/3d-models/down-arrow-animated-eeb55384360240f1a28b7ccad897dc85",
      "title": "Down Arrow Animated"
    },
    "generator": "Sketchfab-8.48.0",
    "version": "2.0"
  },
  "bufferViews": [
    {
      "buffer": 0,
      "byteLength": 133680,
      "byteOffset": 0,
      "name": "floatBufferViews",
      "target": 34963
    },
    {
      "buffer": 0,
      "byteLength": 45144,
      "byteOffset": 133680,
      "byteStride": 8,
      "name": "floatBufferViews",
      "target": 34962
    },
    {
      "buffer": 0,
      "byteLength": 135432,
      "byteOffset": 178824,
      "byteStride": 12,
      "name": "floatBufferViews",
      "target": 34962
    },
    {
      "buffer": 0,
      "byteLength": 14384,
      "byteOffset": 314256,
      "name": "floatBufferViews"
    },
    {
      "buffer": 0,
      "byteLength": 21576,
      "byteOffset": 328640,
      "byteStride": 12,
      "name": "floatBufferViews"
    },
    {
      "buffer": 0,
      "byteLength": 28768,
      "byteOffset": 350216,
      "byteStride": 16,
      "name": "floatBufferViews"
    }
  ],
  "buffers": [
    {
      "byteLength": 378984,
      "uri": "scene.bin"
    }
  ],
  "extensionsUsed": [
    "KHR_materials_unlit"
  ],
  "images": [
    {
      "uri": "textures/lambert1_baseColor.png"
    },
    {
      "uri": "textures/lambert1_emissive.jpeg"
    }
  ],
  "materials": [
    {
      "alphaMode": "BLEND",
      "doubleSided": true,
      "emissiveFactor": [
        1,
        1,
        1
      ],
      "emissiveTexture": {
        "index": 1,
        "texCoord": 0
      },
      "extensions": {
        "KHR_materials_unlit": {}
      },
      "name": "lambert1",
      "pbrMetallicRoughness": {
        "baseColorFactor": [
          1,
          1,
          1,
          0.57218898487441827
        ],
        "baseColorTexture": {
          "index": 0,
          "texCoord": 0
        },
        "metallicFactor": 0,
        "roughnessFactor": 1
      }
    }
  ],
  "meshes": [
    {
      "name": "pasted__pTorus1_lambert1_0",
      "primitives": [
        {
          "attributes": {
            "NORMAL": 1,
            "POSITION": 0,
            "TEXCOORD_0": 2
          },
          "indices": 3,
          "material": 0,
          "mode": 4
        }
      ]
    },
    {
      "name": "pasted__pCube4_lambert1_0",
      "primitives": [
        {
          "attributes": {
            "NORMAL": 5,
            "POSITION": 4,
            "TEXCOORD_0": 6
          },
          "indices": 7,
          "material": 0,
          "mode": 4
        }
      ]
    }
  ],
  "nodes": [
    {
      "children": [
        1
      ],
      "name": "RootNode (gltf orientation matrix)",
      "rotation": [
        -0.70710678118654746,
        -0,
        -0,
        0.70710678118654757
      ]
    },
    {
      "children": [
        2
      ],
      "matrix": [
        1.9357317686080933,
        0,
        0,
        0,
        0,
        1.9357317686080933,
        0,
        0,
        0,
        0,
        1.9357317686080933,
        0,
        0,
        0,
        0,
        1
      ],
      "name": "RootNode (model correction matrix)"
    },
    {
      "children": [
        3
      ],
      "matrix": [
        1,
        0,
        0,
        0,
        0,
        0,
        1,
        0,
        0,
        -1,
        0,
        0,
        0,
        0,
        0,
        1
      ],
      "name": "42a744c883f0447197b8b30d0e75dc92.fbx"
    },
    {
      "children": [
        4
      ],
      "name": ""
    },
    {
      "children": [
        5
      ],
      "name": "RootNode"
    },
    {
      "children": [
        6,
        8
      ],
      "name": "group"
    },
    {
      "children": [
        7
      ],
      "name": "pasted__pTorus1",
      "scale": [
        0.45537847280502319,
        0.45537847280502319,
        0.45537847280502319
      ],
      "translation": [
        0,
        0.074218906462192535,
        0
      ]
    },
    {
      "mesh": 0,
      "name": "pasted__pTorus1_lambert1_0"
    },
    {
      "children": [
        9
      ],
      "name": "pasted__pCube4",
      "rotation": [
        3.6977368896174291e-17,
        0.9413415789604187,
        3.6977368896174291e-17,
        0.33745530247688293
      ],
      "translation": [
        0,
        1.3981993198394775,
        0
      ]
    },
    {
      "mesh": 1,
      "name": "pasted__pCube4_lambert1_0"
    }
  ],
  "samplers": [
    {
      "magFilter": 9729,
      "minFilter": 9987,
      "wrapS": 10497,
      "wrapT": 10497
    }
  ],
  "scene": 0,
  "scenes": [
    {
      "name": "OSG_Scene",
      "nodes": [
        0
      ]
    }
  ],
  "textures": [
    {
      "sampler": 0,
      "source": 0
    },
    {
      "sampler": 0,
      "source": 1
    }
  ]
}

